<?xml version="1.0" encoding="UTF-8" standalone="no"?>
<!-- Created with Inkscape (http://www.inkscape.org/) -->

<svg
        xmlns:dc="http://purl.org/dc/elements/1.1/"
        xmlns:cc="http://creativecommons.org/ns#"
        xmlns:rdf="http://www.w3.org/1999/02/22-rdf-syntax-ns#"
        xmlns:sodipodi="http://sodipodi.sourceforge.net/DTD/sodipodi-0.dtd"
        xmlns:inkscape="http://www.inkscape.org/namespaces/inkscape"
        xmlns="http://www.w3.org/2000/svg"
        width="620"
        height="620"
        viewBox="0 0 620.00001 620"
        id="svg2"
        version="1.1"
        inkscape:version="0.91 r13725"
        sodipodi:docname="logo.svg">
    <defs
            id="defs4"/>
    <sodipodi:namedview
            id="base"
            pagecolor="#ffffff"
            bordercolor="#666666"
            borderopacity="1.0"
            inkscape:pageopacity="0.0"
            inkscape:pageshadow="2"
            inkscape:zoom="1.4"
            inkscape:cx="409.16304"
            inkscape:cy="190.42221"
            inkscape:document-units="px"
            inkscape:current-layer="layer2"
            showgrid="false"
            inkscape:window-width="2560"
            inkscape:window-height="1389"
            inkscape:window-x="1440"
            inkscape:window-y="26"
            inkscape:window-maximized="1"
            fit-margin-top="0"
            fit-margin-left="0"
            fit-margin-right="0"
            fit-margin-bottom="0"
            units="px"
            showborder="true"/>
    <metadata
            id="metadata7">
        <rdf:RDF>
            <cc:Work
                    rdf:about="">
                <dc:format>image/svg+xml</dc:format>
                <dc:type
                        rdf:resource="http://purl.org/dc/dcmitype/StillImage"/>
                <dc:title></dc:title>
            </cc:Work>
        </rdf:RDF>
    </metadata>
    <g
            inkscape:label="Layer 1"
            inkscape:groupmode="layer"
            id="layer1"
            transform="translate(-49.957577,-26.648448)"/>
    <g
            inkscape:groupmode="layer"
            id="layer2"
            inkscape:label="Layer 2"
            style="display:inline"
            transform="translate(-49.957577,-26.648448)">
        <g
                id="g4283"
                transform="translate(0.71428572,-55.714286)">
            <path
                    inkscape:connector-curvature="0"
                    id="path4146"
                    d="M 359.06499,130.10156 A 309.10666,309.10666 0 0 0 49.957577,439.20898 309.10666,309.10666 0 0 0 130.38335,646.64844 l 34.0293,0 A 284.82095,284.82095 0 0 1 74.244686,439.20898 284.82095,284.82095 0 0 1 359.06499,154.38867 284.82095,284.82095 0 0 1 467.54351,175.98438 l 12.19336,-20.99805 A 309.10666,309.10666 0 0 0 359.06499,130.10156 Z m 183.3379,60.67774 13.26171,23.10351 32.60938,56.81055 a 284.82095,284.82095 0 0 1 55.61133,168.51562 284.82095,284.82095 0 0 1 -89.9375,207.43946 l 33.8125,0 A 309.10666,309.10666 0 0 0 668.17242,439.20898 309.10666,309.10666 0 0 0 542.40289,190.7793 Z"
                    style="opacity:0.31300001;fill:#db8a85;fill-opacity:1;stroke:none;stroke-width:0.69999999;stroke-miterlimit:4;stroke-dasharray:none;stroke-opacity:1"/>
            <g
                    style="fill:#ce6478;fill-opacity:1"
                    transform="matrix(0.97474397,0,0,0.99449928,5.5873289,-0.71037372)"
                    id="g4248">
                <g
                        style="fill:#ce6478;fill-opacity:1"
                        id="g4244">
                    <path
                            inkscape:connector-curvature="0"
                            id="flowRoot4149"
                            d="m 216.53125,227.47852 -33.68359,37.73242 0,385.72851 80.23046,0 0,-199.27539 c 0,-11.0065 -0.28789,-23.36436 -0.86718,-37.07422 -0.3862,-13.90294 -0.9659,-27.13036 -1.73828,-39.68164 -0.77239,-14.67533 -1.73791,-29.44797 -2.89649,-44.3164 l 2.60547,0 166.54688,320.34765 67.52148,0 46.30859,-34.16015 0,-389.30078 -80.52148,0 0,200.43359 0,16.2207 c 0.1931,5.98599 0.38698,12.26285 0.58008,18.82813 0.19309,6.37218 0.38503,12.84097 0.57812,19.40625 0.3862,6.37218 0.67605,12.64708 0.86914,18.82617 0.77239,14.28914 1.44806,28.77194 2.02735,43.44726 l -1.73633,0 -166.25781,-317.1621 -79.56641,0 z"
                            style="font-style:normal;font-variant:normal;font-weight:bold;font-stretch:normal;font-size:180px;line-height:125%;font-family:Sans;-inkscape-font-specification:'Sans Bold';letter-spacing:0px;word-spacing:0px;fill:#ce6478;fill-opacity:1;stroke:none;stroke-width:1px;stroke-linecap:butt;stroke-linejoin:miter;stroke-opacity:1"/>
                    <path
                            inkscape:transform-center-x="15.185062"
                            transform="matrix(0.95003163,0.68313209,-0.58185313,1.4573076,155.56114,-436.70236)"
                            inkscape:transform-center-y="-15.516244"
                            d="m 501.91953,154.63588 42.06011,72.85025 -84.12023,0 z"
                            inkscape:randomized="0"
                            inkscape:rounded="0"
                            inkscape:flatsided="true"
                            sodipodi:arg2="-0.52359878"
                            sodipodi:arg1="-1.5707963"
                            sodipodi:r2="24.283417"
                            sodipodi:r1="48.566833"
                            sodipodi:cy="203.20271"
                            sodipodi:cx="501.91953"
                            sodipodi:sides="3"
                            id="path4190"
                            style="opacity:1;fill:#ce6478;fill-opacity:1;stroke:none;stroke-width:0.69999999;stroke-miterlimit:4;stroke-dasharray:none;stroke-opacity:1"
                            sodipodi:type="star"/>
                </g>
                <path
                        sodipodi:type="star"
                        style="opacity:1;fill:#ce6478;fill-opacity:1;stroke:none;stroke-width:0.69999999;stroke-miterlimit:4;stroke-dasharray:none;stroke-opacity:1"
                        id="path4212"
                        sodipodi:sides="3"
                        sodipodi:cx="470.98364"
                        sodipodi:cy="225.55234"
                        sodipodi:r1="17.6402"
                        sodipodi:r2="8.8200998"
                        sodipodi:arg1="-0.1003809"
                        sodipodi:arg2="0.94681665"
                        inkscape:flatsided="true"
                        inkscape:rounded="0"
                        inkscape:randomized="0"
                        d="m 488.53504,223.78457 -24.79617,17.85161 -3.06186,-30.39992 z"
                        inkscape:transform-center-x="-6.7402656"
                        inkscape:transform-center-y="-0.18559241"
                        transform="matrix(1.5246961,0.12141413,-0.15604766,0.99550118,-209.31158,-57.260611)"/>
            </g>
        </g>
    </g>
</svg>
